<?xml version="1.0" standalone="no"?>
<!DOCTYPE svg PUBLIC "-//W3C//DTD SVG 20010904//EN"
 "http://www.w3.org/TR/2001/REC-SVG-20010904/DTD/svg10.dtd">
<svg version="1.0" xmlns="http://www.w3.org/2000/svg"
 width="367.000000pt" height="367.000000pt" viewBox="0 0 367.000000 367.000000"
 preserveAspectRatio="xMidYMid meet">
<metadata>
Created by potrace 1.14, written by Peter Selinger 2001-2017
</metadata>
<g transform="translate(0.000000,367.000000) scale(0.100000,-0.100000)"
fill="#000000" stroke="none">
<path d="M2157 3664 c-1 -1 -90 -5 -197 -8 -107 -4 -224 -8 -260 -11 -36 -2
-117 -7 -180 -10 -63 -4 -142 -8 -175 -10 -334 -21 -734 -26 -800 -11 -77 18
-176 13 -227 -12 -91 -45 -170 -148 -216 -282 -26 -76 -58 -220 -68 -305 -3
-33 -8 -68 -10 -78 -19 -103 -26 -799 -10 -1077 8 -146 11 -219 21 -405 3 -66
8 -145 10 -175 22 -332 23 -669 3 -755 -39 -160 38 -294 217 -380 96 -47 245
-86 380 -101 28 -3 61 -7 75 -10 157 -26 958 -26 1330 1 30 2 111 6 180 10 69
3 150 8 180 10 311 20 623 22 707 4 114 -24 191 -12 268 41 120 83 203 282
240 575 3 22 7 58 10 80 20 157 25 663 11 995 -5 102 -10 214 -11 250 -3 61
-7 136 -21 370 -13 213 -14 254 -18 468 -3 174 -1 236 11 285 59 248 -102 416
-469 486 -146 28 -189 33 -393 47 -94 6 -583 13 -588 8z m378 -227 c-85 -61
-158 -146 -208 -239 l-25 -47 -17 47 c-26 69 -72 151 -116 204 -21 26 -39 48
-39 50 0 3 98 5 217 5 l217 1 -29 -21z m-1095 -20 c0 -3 -13 -31 -29 -63 -50
-101 -92 -269 -107 -424 -4 -36 -8 -72 -10 -80 -1 -8 -3 -33 -3 -56 l-1 -41
-173 3 c-163 3 -176 2 -223 -20 -71 -33 -89 -84 -71 -198 8 -44 10 -47 56 -64
122 -43 208 -136 195 -208 -23 -131 -237 -225 -413 -180 -165 43 -266 178
-306 409 -7 41 -9 337 -2 361 3 10 8 40 12 66 11 88 53 183 107 237 36 37 112
76 168 87 31 5 205 7 325 2 59 -3 144 11 178 29 41 21 61 41 85 87 12 22 26
42 32 46 12 7 180 13 180 7z m464 -151 c217 -106 181 -409 -55 -470 -61 -15
-198 -11 -216 7 -8 9 -4 470 4 478 13 12 62 17 140 15 54 -2 85 -10 127 -30z
m1143 -6 c45 -23 76 -47 105 -83 62 -78 84 -134 113 -287 8 -44 9 -343 1 -403
-23 -173 -108 -302 -241 -366 -73 -35 -129 -42 -204 -27 -145 30 -244 139
-290 317 -17 64 -19 102 -16 279 2 113 6 219 10 235 19 96 58 174 120 242 113
127 262 161 402 93z m-812 -647 c-3 -147 12 -265 45 -363 20 -55 20 -55 0 -30
-95 121 -220 325 -220 359 0 10 23 34 53 54 28 20 67 55 86 77 19 22 35 40 36
40 2 0 1 -62 0 -137z m-499 -79 c77 -37 172 -176 307 -448 44 -89 95 -186 113
-217 33 -55 35 -57 96 -70 80 -17 172 -16 194 2 35 29 34 91 -2 163 -21 43
-18 43 30 -2 24 -22 53 -45 66 -52 16 -9 19 -14 10 -20 -9 -6 -10 -19 -2 -54
13 -64 8 -299 -13 -531 -45 -495 -36 -839 25 -999 13 -34 12 -35 -26 -38 -40
-3 -53 7 -50 40 1 15 -2 47 -6 72 -5 25 -11 59 -14 75 -28 168 -184 616 -309
890 -147 323 -300 593 -323 570 -3 -2 -6 -22 -8 -44 -6 -64 -53 -189 -214
-571 -182 -433 -292 -732 -321 -879 -6 -34 -15 -64 -19 -66 -4 -3 -25 1 -46 9
-35 12 -106 25 -215 40 -71 10 -238 20 -444 25 -20 1 -20 8 -20 409 0 365 -7
622 -20 707 -3 17 -7 48 -10 70 -25 183 -60 266 -103 238 -34 -21 -87 -167
-107 -293 -3 -19 -10 -57 -15 -85 -5 -27 -12 -72 -15 -100 -11 -100 -14 -117
-19 -123 -3 -3 -7 28 -7 69 -1 41 -3 90 -4 109 -2 19 -6 89 -9 155 -3 66 -8
174 -12 240 -3 66 -7 149 -8 185 l-2 66 65 -66 c236 -235 504 -303 731 -184
110 58 193 148 262 283 36 70 38 73 39 40 0 -19 2 -47 4 -64 2 -16 7 -52 10
-80 23 -201 19 -191 73 -206 130 -36 201 6 230 139 10 43 8 282 -3 362 -11 83
-8 219 5 235 16 20 63 19 106 -1z m1688 -515 c3 -35 8 -131 11 -213 3 -82 8
-152 10 -156 2 -3 0 -12 -6 -20 -7 -12 -9 -12 -9 3 0 33 -139 159 -216 197
l-71 35 61 34 c34 19 94 68 136 111 41 42 76 76 77 75 1 -1 5 -30 7 -66z
m-377 -384 c117 -49 164 -178 108 -292 -45 -89 -143 -136 -269 -128 -37 2 -71
7 -75 10 -3 4 -6 98 -6 211 l0 204 35 6 c19 3 40 7 45 9 24 7 127 -6 162 -20z
m401 -444 l-3 -178 -45 39 c-25 22 -62 49 -82 59 -21 11 -38 22 -38 26 0 3 16
22 36 41 38 37 124 163 124 181 0 6 3 11 6 11 3 0 4 -80 2 -179z m-1474 -146
l83 -300 -26 -8 c-14 -5 -69 -9 -121 -10 -107 -2 -150 13 -173 61 -24 50 -14
107 50 272 59 152 70 185 84 250 7 30 14 51 15 45 2 -5 42 -145 88 -310z
m1073 -58 c168 -51 256 -220 201 -387 -38 -119 -151 -200 -279 -202 -99 -2
-137 2 -151 15 -10 11 -13 72 -12 288 1 151 2 277 3 281 3 18 182 22 238 5z
m-1040 -480 c57 -21 91 -44 135 -89 34 -35 88 -132 88 -157 0 -6 -23 -11 -52
-12 -29 0 -71 -2 -93 -4 -45 -4 -250 -14 -434 -21 l-123 -5 7 37 c22 120 118
219 249 259 53 16 169 11 223 -8z"/>
</g>
</svg>
